<?xml version="1.0" standalone="no"?>
<!DOCTYPE svg PUBLIC "-//W3C//DTD SVG 20010904//EN"
 "http://www.w3.org/TR/2001/REC-SVG-20010904/DTD/svg10.dtd">
<svg version="1.0" xmlns="http://www.w3.org/2000/svg"
 width="374.000000pt" height="374.000000pt" viewBox="0 0 374.000000 374.000000"
 preserveAspectRatio="xMidYMid meet">
<metadata>
Created by potrace 1.14, written by Peter Selinger 2001-2017
</metadata>
<g transform="translate(0.000000,374.000000) scale(0.100000,-0.100000)"
fill="#000000" stroke="none">
<path d="M1610 3680 c-97 -14 -281 -62 -395 -105 -369 -137 -710 -420 -916
-761 -404 -670 -344 -1515 151 -2119 67 -82 222 -232 300 -292 218 -165 474
-281 749 -341 117 -25 143 -27 366 -27 214 0 253 3 355 24 743 153 1301 714
1452 1461 20 100 23 144 23 340 0 234 -4 273 -52 465 -145 587 -611 1084
-1199 1279 -189 63 -290 78 -539 81 -126 2 -259 -1 -295 -5z m520 -66 c513
-74 969 -373 1248 -820 168 -270 262 -600 262 -922 0 -221 -25 -376 -91 -575
-126 -378 -381 -707 -715 -923 -298 -193 -609 -285 -959 -285 -490 0 -919 177
-1264 522 -598 598 -688 1531 -216 2239 180 271 445 495 740 628 316 141 644
186 995 136z"/>
<path d="M1700 3609 c-299 -21 -618 -145 -890 -344 -105 -78 -284 -260 -366
-375 -121 -168 -210 -352 -269 -555 -47 -164 -59 -263 -59 -485 1 -181 4 -219
27 -331 112 -537 455 -987 932 -1224 148 -73 264 -116 415 -152 91 -22 135
-26 325 -30 193 -4 236 -2 350 16 750 123 1350 749 1445 1505 18 143 8 454
-20 581 -116 542 -464 987 -955 1225 -214 104 -396 154 -614 170 -141 11 -159
10 -321 -1z m306 -141 c-4 -18 -9 -100 -13 -181 l-6 -148 -46 3 c-46 3 -46 3
-43 38 1 19 5 99 8 178 l6 142 50 0 50 0 -6 -32z m-373 -7 c68 -26 78 -91 22
-140 l-36 -31 32 -40 c18 -22 48 -52 67 -66 18 -14 31 -28 28 -31 -3 -3 -32
-11 -65 -18 l-60 -12 -6 28 c-5 22 -35 73 -70 117 -1 1 -10 0 -19 -4 -21 -8
-20 -22 4 -91 11 -32 17 -60 12 -65 -4 -4 -26 -10 -49 -14 -47 -7 -43 -14 -58
111 -3 28 -18 88 -32 135 -14 47 -26 87 -27 90 -2 8 145 38 191 39 23 1 53 -3
66 -8z m815 -59 c115 -52 115 -243 1 -319 -47 -31 -126 -37 -169 -13 l-25 14
38 7 c73 12 162 129 174 227 5 50 -11 82 -41 82 -68 0 -198 -201 -182 -280 7
-38 3 -38 -25 1 -91 128 17 325 166 301 17 -2 45 -11 63 -20z m-1491 -104 c-3
-7 -5 -2 -5 12 0 14 2 19 5 13 2 -7 2 -19 0 -25z m190 -37 c81 -37 130 -145
104 -231 -12 -40 -80 -110 -106 -110 -11 0 -10 5 6 21 47 47 0 233 -74 295
-36 31 -66 28 -86 -8 -13 -22 -13 -36 -4 -83 17 -80 57 -162 99 -201 l35 -34
-32 0 c-54 0 -118 38 -150 88 -52 82 -51 157 4 219 56 64 126 79 204 44z
m1981 -342 l91 -107 -50 -31 c-39 -24 -47 -26 -39 -11 21 40 1 146 -32 166
-10 6 -77 -34 -116 -69 l-22 -21 26 -27 c15 -16 41 -31 57 -35 l31 -6 -34 -31
-35 -31 -5 34 c-6 36 -36 90 -50 90 -5 0 -33 -27 -63 -60 -29 -33 -56 -60 -59
-60 -2 0 -19 18 -36 39 l-32 40 78 54 c42 30 102 81 132 115 30 33 58 59 61
58 4 0 47 -49 97 -107z m-2405 -12 c40 -34 101 -80 137 -101 36 -22 66 -40 68
-42 2 -1 -4 -14 -13 -28 l-17 -26 -179 0 c-103 0 -179 -4 -179 -9 0 -31 140
-117 207 -128 18 -3 33 -7 33 -10 0 -2 -9 -16 -20 -31 l-20 -27 -57 52 c-53
50 -173 136 -207 149 -22 8 -20 20 9 59 l26 33 139 4 c77 2 144 8 149 13 15
15 -73 71 -134 87 -27 7 -52 13 -54 15 -5 3 28 53 35 53 3 0 37 -28 77 -63z
m1244 -23 c98 -12 145 -14 182 -7 l50 10 -17 -30 c-9 -16 -34 -41 -54 -55
l-38 -25 0 -233 c0 -138 4 -234 9 -234 5 0 19 14 31 31 31 42 34 31 10 -34
-26 -70 -87 -139 -148 -168 -71 -35 -170 -32 -243 7 -90 48 -139 139 -139 260
0 110 43 214 120 289 l41 40 -33 -70 c-31 -65 -33 -77 -33 -175 0 -89 3 -111
22 -146 61 -114 174 -144 301 -81 l47 23 3 245 2 244 -92 0 c-51 0 -143 4
-203 9 -97 8 -115 7 -144 -9 l-34 -17 7 29 c17 71 78 113 166 113 30 0 115 -7
187 -16z m3 -318 c0 -85 -5 -167 -11 -183 -13 -35 -46 -70 -81 -89 -27 -14
-28 -14 -18 11 6 15 10 96 10 181 0 154 0 155 -21 143 -14 -7 -20 -7 -18 0 4
10 118 89 132 90 4 1 7 -68 7 -153z m-1579 -100 c45 -21 50 -25 27 -25 -31 -1
-92 -50 -114 -93 l-15 -28 63 -30 c35 -17 71 -30 80 -30 22 0 34 59 19 100
-10 29 -9 31 12 24 71 -22 69 -20 31 -58 -51 -51 -44 -77 21 -93 28 -6 62 -12
78 -12 26 -1 27 0 27 55 0 40 -6 67 -21 90 l-21 34 49 -6 c26 -4 49 -8 50 -8
2 -2 -53 -178 -82 -263 -2 -8 -29 0 -82 23 -43 18 -112 41 -153 50 -121 26
-114 10 -67 161 23 73 43 133 43 133 1 0 26 -11 55 -24z m2684 -26 c20 -23 14
-50 -13 -50 -25 0 -42 19 -42 47 0 29 30 31 55 3z m313 -186 c80 -33 120 -106
121 -216 l0 -48 -40 0 -41 0 31 26 c23 19 31 34 31 58 0 77 -123 118 -246 81
-112 -33 -130 -125 -38 -186 l28 -18 -28 -11 c-16 -6 -31 -8 -35 -5 -7 8 -30
89 -37 136 -22 132 124 238 254 183z m-3078 -284 c23 -1 22 -2 -10 -16 -45
-19 -70 -43 -70 -65 0 -14 12 -19 57 -25 56 -7 219 0 259 12 20 5 23 1 29 -46
4 -28 5 -53 3 -55 -2 -2 -39 1 -82 6 -71 9 -250 -1 -263 -15 -15 -15 15 -50
58 -71 l49 -22 -57 -6 c-32 -3 -58 -5 -59 -4 -1 1 -4 73 -5 160 l-4 159 35 -6
c19 -3 46 -6 60 -6z m860 -55 c65 -17 124 -19 151 -5 33 18 22 -7 -22 -50 -61
-59 -98 -67 -193 -40 -73 20 -79 20 -103 5 -24 -16 -25 -16 -18 7 15 54 65 98
110 98 11 0 45 -7 75 -15z m408 -25 c18 0 32 -2 32 -5 0 -21 -35 -65 -60 -77
l-30 -13 0 -272 c0 -153 -4 -273 -9 -273 -5 0 -7 59 -6 130 l3 130 -54 0 -54
0 0 -118 0 -118 -32 -31 c-43 -41 -123 -81 -193 -95 -49 -9 -64 -8 -131 12
-47 14 -89 20 -110 17 l-34 -6 24 36 c30 44 73 73 106 73 14 0 59 -21 100 -45
85 -51 111 -55 145 -20 l25 24 0 266 0 267 33 30 c17 17 63 52 102 79 l69 49
21 -20 c12 -11 35 -20 53 -20z m1095 4 c17 -22 26 -25 58 -21 l38 5 -14 -29
c-9 -16 -29 -36 -45 -44 l-30 -16 0 -265 0 -265 23 12 c12 6 37 25 55 42 35
34 40 31 18 -11 -23 -44 -97 -109 -151 -134 -68 -30 -190 -31 -256 -1 -174 78
-238 321 -140 529 32 68 108 156 162 188 l33 20 -37 -45 c-20 -25 -49 -72 -64
-105 -26 -55 -28 -68 -28 -189 0 -122 2 -134 28 -187 31 -64 78 -104 145 -124
53 -16 140 -18 176 -4 l26 10 0 265 0 265 -23 0 c-24 0 -67 33 -67 51 0 6 -6
9 -12 7 -10 -4 -14 -61 -18 -224 -6 -247 -9 -258 -82 -295 -39 -20 -39 -20
-29 0 7 12 11 102 11 235 l0 215 -35 -21 c-20 -11 -38 -18 -41 -16 -3 3 42 33
99 66 58 34 118 72 133 86 36 32 42 32 67 0z m-1423 -133 c-6 -11 -10 -89 -10
-180 0 -89 -5 -172 -11 -188 -13 -35 -46 -71 -82 -90 -27 -14 -28 -13 -18 6 6
11 11 60 11 110 l0 91 -30 0 c-16 0 -39 -9 -49 -19 -20 -20 -20 -20 -26 0 -11
33 4 87 28 104 12 8 34 15 49 15 26 0 28 3 28 37 0 31 8 44 50 85 53 51 79 63
60 29z m1954 -14 c8 -21 6 -31 -7 -44 -13 -13 -19 -14 -31 -3 -16 13 -22 61
-9 74 14 14 38 0 47 -27z m-2256 -874 c-14 -2 -32 -11 -39 -19 -10 -12 -8 -19
10 -38 23 -24 60 -25 91 -2 13 10 13 9 1 -6 -11 -15 -10 -23 7 -58 10 -22 15
-37 10 -34 -6 4 -23 -3 -39 -15 -16 -12 -29 -18 -29 -13 0 5 -11 14 -24 21
-21 12 -23 16 -13 47 9 30 8 38 -11 56 -18 19 -25 20 -47 10 -16 -7 -33 -9
-42 -4 -12 7 -9 13 18 29 46 28 58 32 99 31 28 -1 30 -2 8 -5z m1870 0 c-14
-2 -32 -11 -39 -19 -10 -12 -8 -19 10 -38 19 -20 28 -22 57 -16 32 7 34 6 34
-19 0 -15 8 -37 17 -50 9 -14 11 -21 4 -16 -8 4 -25 -1 -42 -14 -16 -12 -29
-18 -29 -13 0 5 -11 14 -24 21 -21 12 -23 16 -13 47 9 30 8 38 -11 56 -18 19
-25 20 -47 10 -33 -15 -51 -6 -33 15 19 24 69 42 108 41 29 -1 30 -2 8 -5z
m-1775 -35 c18 -18 23 -25 12 -15 -12 9 -23 16 -26 14 -2 -2 -12 5 -21 15 -31
32 1 19 35 -14z m1857 14 c15 -12 18 -19 9 -18 -15 0 -55 36 -40 36 5 0 19 -8
31 -18z m-2048 -188 c-3 -21 -10 -34 -18 -34 -8 0 -18 -9 -22 -21 -7 -16 -10
-11 -21 30 -7 28 -17 51 -22 51 -5 0 -9 4 -9 10 0 5 7 7 15 4 9 -4 19 3 26 19
l11 25 22 -25 c16 -18 21 -35 18 -59z m254 -9 c-4 -21 -12 -31 -25 -31 -16 0
-17 4 -10 25 6 13 8 30 5 38 -3 7 -1 13 4 13 5 0 13 12 17 28 8 27 8 27 11 -7
2 -19 1 -49 -2 -66z m1616 9 c-3 -21 -10 -34 -18 -34 -8 0 -18 -9 -22 -21 -7
-16 -10 -11 -21 30 -7 28 -17 51 -22 51 -5 0 -9 4 -9 10 0 5 7 7 15 4 9 -4 19
3 26 19 l11 25 22 -25 c16 -18 21 -35 18 -59z m254 -9 c-4 -21 -12 -31 -25
-31 -16 0 -17 4 -10 25 6 13 8 30 5 38 -3 7 -1 13 4 13 5 0 13 12 17 28 8 27
8 27 11 -7 2 -19 1 -49 -2 -66z m-1975 -78 c-6 -6 -11 -19 -11 -29 0 -21 -11
-23 -28 -6 -9 9 -18 9 -37 0 -34 -16 -40 -15 -26 2 9 10 9 20 2 33 -8 15 -6
19 11 20 12 1 25 6 31 12 7 7 20 5 40 -5 21 -12 26 -19 18 -27z m1870 0 c-6
-6 -11 -19 -11 -29 0 -21 -11 -23 -28 -6 -9 9 -18 9 -37 0 -34 -16 -40 -15
-26 2 9 10 9 20 2 33 -8 15 -6 19 11 20 12 1 25 6 31 12 7 7 20 5 40 -5 21
-12 26 -19 18 -27z m-1791 20 c0 -2 -10 -12 -22 -23 l-23 -19 19 23 c18 21 26
27 26 19z m1870 0 c0 -2 -10 -12 -22 -23 l-23 -19 19 23 c18 21 26 27 26 19z
m-710 -52 c0 -8 5 -37 11 -65 7 -35 16 -50 27 -51 11 0 12 -2 5 -6 -16 -6 -17
-35 -1 -51 15 -15 11 -18 -32 -26 -34 -6 -35 -5 -35 26 0 30 -2 33 -30 31 -18
-1 -22 0 -10 4 33 8 36 17 24 72 -10 48 -12 51 -25 34 -12 -15 -12 -12 0 14
20 41 66 54 66 18z m-1215 5 c-3 -5 -12 -10 -18 -10 -7 0 -6 4 3 10 19 12 23
12 15 0z m540 3 c-30 -7 -40 -20 -26 -36 14 -18 -11 -42 -34 -33 -49 18 -11
77 49 75 21 -1 24 -3 11 -6z m1330 -3 c-3 -5 -12 -10 -18 -10 -7 0 -6 4 3 10
19 12 23 12 15 0z m-1273 -17 c23 -21 23 -65 1 -86 -10 -8 -47 -22 -81 -30
-89 -20 -97 -34 -28 -42 31 -4 65 -5 76 -2 17 4 20 0 20 -25 0 -23 -4 -28 -17
-24 -10 3 -46 10 -81 17 -34 6 -65 15 -67 19 -9 14 37 61 84 85 59 29 75 48
69 80 -6 29 -1 31 24 8z m239 -32 c23 -24 29 -38 29 -75 0 -58 -17 -94 -51
-112 -41 -21 -74 -17 -108 12 -77 64 -31 204 66 204 25 0 43 -8 64 -29z m163
-57 c4 -47 11 -97 16 -110 9 -23 7 -24 -28 -24 l-37 0 -1 74 c0 43 -5 81 -12
89 -10 12 -8 19 15 36 15 11 31 21 34 21 3 0 9 -39 13 -86z m126 -50 c0 -2
-12 -4 -26 -4 -14 0 -23 4 -20 9 6 8 46 4 46 -5z"/>
<path d="M1504 3435 c-13 -20 -16 -40 -11 -91 2 -36 7 -67 9 -69 8 -8 70 14
89 31 31 28 25 89 -10 125 -36 36 -56 37 -77 4z"/>
<path d="M1412 1828 c-8 -8 -12 -49 -12 -115 l0 -103 53 0 52 0 1 90 c2 83 0
90 -20 96 -11 3 -30 15 -42 25 -16 15 -23 16 -32 7z"/>
<path d="M1771 478 c-28 -62 -36 -129 -18 -152 34 -46 80 24 81 124 1 60 -1
65 -22 68 -18 3 -26 -5 -41 -40z"/>
</g>
</svg>
